<?xml version="1.0" encoding="UTF-8" ?>
<!DOCTYPE svg PUBLIC "-//W3C//DTD SVG 1.1//EN" "http://www.w3.org/Graphics/SVG/1.1/DTD/svg11.dtd">
<svg width="1600pt" height="400pt" viewBox="0 0 1600 400" version="1.1" xmlns="http://www.w3.org/2000/svg">
<g id="#ecececff">
<path fill="#ececec" opacity="1.00" d=" M 0.00 0.00 L 0.01 0.00 C 0.01 0.02 0.00 0.06 0.00 0.08 L 0.00 0.00 Z" />
<path fill="#ececec" opacity="1.00" d=" M 279.77 138.75 C 306.71 125.40 333.50 111.73 360.50 98.52 C 360.74 98.71 361.22 99.10 361.46 99.29 C 361.55 166.94 361.51 234.60 361.48 302.25 C 307.34 329.34 253.20 356.41 199.05 383.47 C 199.23 317.30 199.05 251.12 199.13 184.95 C 199.17 183.00 199.30 181.05 199.41 179.11 C 226.07 165.40 253.02 152.27 279.77 138.75 Z" />
</g>
<g id="#4d4d4dff">
<path fill="#4d4d4d" opacity="1.00" d=" M 28.28 93.73 C 85.25 65.45 142.12 36.95 199.00 8.47 C 255.83 36.89 312.68 65.24 369.50 93.68 L 369.85 94.25 C 369.79 165.31 369.90 236.37 369.79 307.44 C 312.84 335.84 255.96 364.40 198.99 392.77 C 142.07 364.31 85.18 335.78 28.21 307.42 C 28.19 236.19 28.04 164.96 28.28 93.73 M 37.65 98.48 L 38.02 98.71 L 36.92 98.29 C 36.63 99.52 36.48 100.76 36.47 102.03 C 36.55 168.77 36.44 235.51 36.53 302.25 C 90.73 329.27 144.86 356.42 199.05 383.47 C 253.20 356.41 307.34 329.34 361.48 302.25 C 361.51 234.60 361.55 166.94 361.46 99.29 C 361.22 99.10 360.74 98.71 360.50 98.52 C 306.69 71.59 252.87 44.67 199.03 17.79 C 145.24 44.69 91.45 71.59 37.65 98.48 Z" />
</g>
<g id="#f9f9f9ff">
<path fill="#f9f9f9" opacity="1.00" d=" M 37.65 98.48 C 91.45 71.59 145.24 44.69 199.03 17.79 C 252.87 44.67 306.69 71.59 360.50 98.52 C 333.50 111.73 306.71 125.40 279.77 138.75 C 253.02 152.27 226.07 165.40 199.41 179.11 C 145.46 152.64 91.93 125.27 38.02 98.71 L 37.65 98.48 Z" />
</g>
<g id="#000000ff">
<path fill="#000000" opacity="1.00" d=" M 390.00 93.00 C 437.50 93.00 485.00 93.00 532.50 93.00 C 532.50 104.83 532.52 116.66 532.50 128.50 C 498.29 128.55 464.08 128.44 429.87 128.55 C 429.85 175.87 429.86 223.18 429.87 270.49 C 464.08 270.51 498.29 270.49 532.50 270.50 C 532.52 282.32 532.47 294.14 532.52 305.96 C 485.02 306.05 437.51 305.98 390.00 306.00 C 390.00 235.00 390.00 164.00 390.00 93.00 Z" />
<path fill="#000000" opacity="1.00" d=" M 568.00 93.00 C 581.29 93.00 594.58 92.99 607.87 93.01 C 607.86 164.00 607.86 235.00 607.87 305.99 C 594.58 306.01 581.29 306.00 568.00 306.00 C 568.00 235.00 568.00 164.00 568.00 93.00 Z" />
<path fill="#000000" opacity="1.00" d=" M 1101.13 93.01 C 1114.42 92.99 1127.71 93.00 1141.00 93.00 C 1141.00 164.00 1141.00 235.00 1141.00 306.00 C 1127.71 306.00 1114.42 306.01 1101.13 305.99 C 1101.13 298.56 1101.16 291.14 1101.12 283.71 C 1093.64 291.10 1086.27 298.59 1078.83 306.00 C 1052.22 305.99 1025.61 306.01 999.00 306.00 C 999.00 258.66 999.00 211.33 999.00 164.00 C 1033.05 163.99 1067.09 164.01 1101.13 163.99 C 1101.14 140.33 1101.14 116.67 1101.13 93.01 M 1038.87 199.51 C 1038.86 223.17 1038.86 246.83 1038.87 270.49 C 1059.62 270.50 1080.38 270.50 1101.13 270.49 C 1101.14 246.83 1101.14 223.17 1101.13 199.51 C 1080.38 199.50 1059.62 199.50 1038.87 199.51 Z" />
<path fill="#000000" opacity="1.00" d=" M 1177.00 93.00 C 1197.81 93.06 1218.62 92.87 1239.43 93.10 C 1251.96 136.74 1264.76 180.31 1277.40 223.93 C 1279.16 230.43 1281.39 236.82 1282.90 243.38 L 1282.58 244.85 C 1283.12 245.39 1283.99 246.28 1284.80 245.58 L 1284.95 244.65 C 1284.99 242.43 1285.52 240.29 1286.29 238.22 C 1300.32 189.83 1314.49 141.47 1328.46 93.07 C 1349.26 92.92 1370.06 93.03 1390.87 93.01 C 1390.86 164.00 1390.86 235.00 1390.87 305.99 C 1377.58 306.01 1364.29 306.00 1351.00 306.00 C 1351.05 253.91 1350.90 201.83 1351.08 149.74 C 1351.68 149.64 1350.81 146.17 1350.12 147.71 C 1349.00 154.60 1346.41 161.12 1344.64 167.85 C 1331.05 213.90 1317.49 259.95 1303.90 306.00 C 1290.58 306.00 1277.26 306.01 1263.95 305.99 C 1251.11 262.46 1238.28 218.92 1225.44 175.39 C 1222.56 166.24 1220.36 156.85 1217.03 147.87 C 1216.64 200.57 1216.97 253.28 1216.87 305.99 C 1203.58 306.01 1190.29 306.00 1177.00 306.00 C 1177.00 235.00 1177.00 164.00 1177.00 93.00 Z" />
<path fill="#000000" opacity="1.00" d=" M 1426.00 93.00 C 1473.50 92.99 1521.00 93.00 1568.50 93.00 C 1568.51 104.83 1568.51 116.66 1568.50 128.50 C 1534.29 128.55 1500.08 128.44 1465.87 128.56 C 1465.85 175.87 1465.86 223.18 1465.87 270.49 C 1500.08 270.51 1534.29 270.49 1568.50 270.50 C 1568.52 282.32 1568.47 294.14 1568.53 305.96 C 1521.02 306.06 1473.51 305.97 1426.00 306.00 C 1426.00 235.00 1426.00 164.00 1426.00 93.00 Z" />
<path fill="#000000" opacity="1.00" d=" M 643.00 164.00 C 690.33 164.00 737.67 164.00 785.00 164.00 C 785.00 211.34 785.00 258.67 785.00 306.00 C 737.67 306.00 690.33 306.00 643.00 306.00 C 643.00 258.67 643.00 211.33 643.00 164.00 M 682.87 199.51 C 682.86 223.17 682.86 246.83 682.87 270.49 C 703.62 270.50 724.38 270.50 745.13 270.49 C 745.14 246.83 745.14 223.17 745.13 199.51 C 724.38 199.50 703.62 199.50 682.87 199.51 Z" />
<path fill="#000000" opacity="1.00" d=" M 821.00 164.00 C 834.29 164.00 847.58 163.99 860.87 164.01 C 860.86 199.50 860.86 235.00 860.87 270.49 C 881.62 270.50 902.38 270.50 923.13 270.49 C 923.14 235.00 923.14 199.50 923.13 164.01 C 936.42 163.99 949.71 164.00 963.00 164.00 C 963.00 211.33 963.00 258.67 963.00 306.00 C 949.71 306.00 936.42 306.01 923.13 305.99 C 923.13 298.56 923.15 291.12 923.12 283.69 C 915.66 291.10 908.27 298.58 900.83 306.00 C 874.22 306.00 847.61 306.00 821.00 306.00 C 821.00 258.67 821.00 211.34 821.00 164.00 Z" />
</g>
<g id="#ccccccff">
<path fill="#cccccc" opacity="1.00" d=" M 36.47 102.03 C 36.48 100.76 36.63 99.52 36.92 98.29 L 38.02 98.71 C 91.93 125.27 145.46 152.64 199.41 179.11 C 199.30 181.05 199.17 183.00 199.13 184.95 C 199.05 251.12 199.23 317.30 199.05 383.47 C 144.86 356.42 90.73 329.27 36.53 302.25 C 36.44 235.51 36.55 168.77 36.47 102.03 Z" />
</g>
</svg>
