<!DOCTYPE svg PUBLIC "-//W3C//DTD SVG 20010904//EN" "http://www.w3.org/TR/2001/REC-SVG-20010904/DTD/svg10.dtd">
<svg version="1.0" xmlns="http://www.w3.org/2000/svg" width="399px" height="94px" viewBox="0 0 3990 940" preserveAspectRatio="xMidYMid meet">
<g id="layer101" fill="#fc6f04" stroke="none">
<path d="M3510 595 l0 -195 30 0 c17 0 30 5 30 12 0 9 3 9 12 0 17 -17 73 -15 108 3 40 21 61 66 61 130 0 99 -48 151 -132 143 l-49 -5 0 53 c0 53 0 54 -30 54 l-30 0 0 -195z m155 20 c30 -29 34 -97 9 -133 -20 -30 -68 -30 -88 0 -23 33 -21 113 4 138 26 26 46 25 75 -5z"/>
<path d="M2745 690 c-72 -11 -106 -41 -120 -107 -6 -32 -6 -33 29 -33 29 0 36 4 36 19 0 51 116 84 153 43 37 -41 12 -70 -78 -92 -127 -30 -169 -114 -94 -186 23 -22 41 -29 87 -32 86 -6 145 29 158 96 6 31 6 32 -30 32 -29 0 -36 -4 -36 -19 0 -47 -88 -67 -131 -32 -37 30 -16 52 71 75 122 33 167 96 125 176 -25 48 -91 71 -170 60z"/>
<path d="M3012 674 c-12 -8 -29 -28 -37 -44 -19 -37 -19 -133 0 -170 41 -80 182 -80 215 0 11 27 11 33 -1 41 -26 16 -49 9 -59 -17 -9 -22 -15 -25 -47 -22 -33 3 -39 8 -51 40 -29 76 13 151 71 129 16 -6 29 -21 33 -36 6 -23 10 -25 38 -19 17 3 32 7 34 9 8 7 -31 75 -52 89 -32 21 -114 21 -144 0z"/>
<path d="M3222 548 l3 -143 28 -3 c17 -2 27 1 27 9 0 10 3 10 12 1 14 -14 57 -16 78 -2 9 5 19 5 27 -1 6 -6 22 -9 35 -7 23 3 23 5 26 146 l3 142 -36 0 -35 0 -1 -132 c0 -97 -3 -126 -10 -107 -8 21 -15 25 -36 21 -42 -8 -53 18 -53 125 l0 93 -35 0 -36 0 3 -142z"/>
<path d="M3817 672 c-13 -15 -17 -39 -17 -115 0 -90 -1 -97 -20 -97 -15 0 -20 -7 -20 -26 0 -17 6 -28 20 -31 14 -4 20 -14 20 -33 0 -24 33 -60 55 -60 3 0 5 20 5 44 0 39 3 45 23 48 16 2 23 11 25 31 3 23 0 27 -23 27 l-26 0 3 83 c3 76 5 82 26 85 17 3 22 10 22 33 0 27 -3 29 -38 29 -25 0 -45 -7 -55 -18z"/>
<path d="M3394 366 c-3 -8 -4 -25 -2 -38 2 -18 10 -24 36 -26 33 -3 33 -3 30 35 -3 33 -7 38 -31 41 -17 2 -29 -2 -33 -12z"/>
</g>
<g id="layer102" fill="#feffff" stroke="none">
<path d="M119 831 c-127 -80 -116 -269 20 -332 40 -19 50 -29 51 -49 1 -69 74 -130 157 -130 42 0 53 -4 58 -19 8 -27 80 -90 123 -108 54 -22 152 -19 206 6 51 25 111 87 132 137 8 18 14 55 14 82 l0 49 56 12 c173 39 218 241 78 347 l-37 29 -406 3 -406 3 -46 -30z"/>
<path d="M1420 699 c-73 -22 -112 -87 -112 -189 -1 -107 39 -168 125 -191 84 -22 169 13 197 81 15 36 15 35 -27 43 -26 5 -33 3 -38 -13 -9 -27 -53 -60 -82 -60 -67 0 -105 51 -105 140 0 72 16 104 63 125 37 17 42 17 75 2 22 -11 40 -30 49 -50 12 -30 18 -33 44 -29 38 5 41 29 10 79 -36 57 -123 85 -199 62z"/>
<path d="M1854 696 c-55 -24 -74 -60 -74 -137 0 -62 3 -72 31 -103 37 -43 96 -56 152 -33 67 28 98 136 61 213 -27 57 -111 86 -170 60z m96 -66 c15 -15 20 -33 20 -70 0 -56 -24 -90 -62 -90 -29 0 -42 9 -57 37 -43 83 38 184 99 123z"/>
<path d="M2125 696 c-44 -19 -55 -53 -55 -171 l0 -105 35 0 35 0 0 103 c0 106 7 127 42 127 10 0 27 -9 38 -20 17 -17 20 -33 20 -115 l0 -95 30 0 30 0 0 140 0 140 -42 -2 c-24 -1 -56 2 -73 5 -18 4 -42 2 -60 -7z"/>
<path d="M2423 699 c-98 -29 -112 -213 -21 -269 37 -22 69 -25 99 -10 18 10 19 7 19 -45 l0 -55 35 0 35 0 0 190 0 191 -42 -2 c-24 -1 -54 0 -68 4 -14 3 -39 1 -57 -4z m87 -76 c39 -50 10 -153 -43 -153 -38 0 -57 29 -57 84 0 90 54 127 100 69z"/>
<path d="M1670 510 l0 -190 35 0 35 0 0 190 0 190 -35 0 -35 0 0 -190z"/>
</g>


</svg>